HIERARCHY
ROOT Hips
{
	OFFSET 0.00000 0.00000 0.00000
	CHANNELS 6 Xposition Yposition Zposition Zrotation Yrotation Xrotation 
	JOINT LHipJoint
	{
		OFFSET 0 0 0
		CHANNELS 3 Zrotation Yrotation Xrotation
		JOINT LeftUpLeg
		{
			OFFSET 1.57358 -1.76629 0.73362
			CHANNELS 3 Zrotation Yrotation Xrotation
			JOINT LeftLeg
			{
				OFFSET 2.40600 -6.61045 0.00000
				CHANNELS 3 Zrotation Yrotation Xrotation
				JOINT LeftFoot
				{
					OFFSET 2.66168 -7.31291 0.00000
					CHANNELS 3 Zrotation Yrotation Xrotation
					JOINT LeftToeBase
					{
						OFFSET 0.20870 -0.57341 2.12506
						CHANNELS 3 Zrotation Yrotation Xrotation
						End Site
						{
							OFFSET 0.00000 -0.00000 1.10557
						}
					}
				}
			}
		}
	}
	JOINT RHipJoint
	{
		OFFSET 0 0 0
		CHANNELS 3 Zrotation Yrotation Xrotation
		JOINT RightUpLeg
		{
			OFFSET -1.49299 -1.76629 0.73362
			CHANNELS 3 Zrotation Yrotation Xrotation
			JOINT RightLeg
			{
				OFFSET -2.43663 -6.69460 0.00000
				CHANNELS 3 Zrotation Yrotation Xrotation
				JOINT RightFoot
				{
					OFFSET -2.62959 -7.22474 0.00000
					CHANNELS 3 Zrotation Yrotation Xrotation
					JOINT RightToeBase
					{
						OFFSET -0.25784 -0.70841 2.21862
						CHANNELS 3 Zrotation Yrotation Xrotation
						End Site
						{
							OFFSET -0.00000 -0.00000 1.16452
						}
					}
				}
			}
		}
	}
	JOINT LowerBack
	{
		OFFSET 0 0 0
		CHANNELS 3 Zrotation Yrotation Xrotation
		JOINT Spine
		{
			OFFSET -0.00034 2.12399 -0.25450
			CHANNELS 3 Zrotation Yrotation Xrotation
			JOINT Spine1
			{
				OFFSET 0.05594 2.14379 -0.03318
				CHANNELS 3 Zrotation Yrotation Xrotation
				JOINT Neck
				{
					OFFSET 0 0 0
					CHANNELS 3 Zrotation Yrotation Xrotation
					JOINT Neck1
					{
						OFFSET -0.09835 1.62725 0.24211
						CHANNELS 3 Zrotation Yrotation Xrotation
						JOINT Head
						{
							OFFSET 0.10849 1.66041 -0.22648
							CHANNELS 3 Zrotation Yrotation Xrotation
							End Site
							{
								OFFSET 0.04385 1.68267 -0.10541
							}
						}
					}
				}
				JOINT LeftShoulder
				{
					OFFSET 0 0 0
					CHANNELS 3 Zrotation Yrotation Xrotation
					JOINT LeftArm
					{
						OFFSET 3.29108 0.79398 -0.68179
						CHANNELS 3 Zrotation Yrotation Xrotation
						JOINT LeftForeArm
						{
							OFFSET 5.15310 -0.00000 -0.00000
							CHANNELS 3 Zrotation Yrotation Xrotation
							JOINT LeftHand
							{
								OFFSET 3.75138 -0.00000 -0.00000
								CHANNELS 3 Zrotation Yrotation Xrotation
								JOINT LeftFingerBase
								{
									OFFSET 0 0 0
									CHANNELS 3 Zrotation Yrotation Xrotation
									JOINT LeftHandIndex1
									{
										OFFSET 0.52917 -0.00000 0.00000
										CHANNELS 3 Zrotation Yrotation Xrotation
										End Site
										{
											OFFSET 0.42663 -0.00000 0.00000
										}
									}
								}
								JOINT LThumb
								{
									OFFSET 0 0 0
									CHANNELS 3 Zrotation Yrotation Xrotation
									End Site
									{
										OFFSET 0.43315 -0.00000 0.43315
									}
								}
							}
						}
					}
				}
				JOINT RightShoulder
				{
					OFFSET 0 0 0
					CHANNELS 3 Zrotation Yrotation Xrotation
					JOINT RightArm
					{
						OFFSET -3.07414 1.06285 -0.44338
						CHANNELS 3 Zrotation Yrotation Xrotation
						JOINT RightForeArm
						{
							OFFSET -5.29613 -0.00000 0.00000
							CHANNELS 3 Zrotation Yrotation Xrotation
							JOINT RightHand
							{
								OFFSET -3.76144 -0.00000 -0.00000
								CHANNELS 3 Zrotation Yrotation Xrotation
								JOINT RightFingerBase
								{
									OFFSET 0 0 0
									CHANNELS 3 Zrotation Yrotation Xrotation
									JOINT RightHandIndex1
									{
										OFFSET -0.74732 -0.00000 0.00000
										CHANNELS 3 Zrotation Yrotation Xrotation
										End Site
										{
											OFFSET -0.60251 -0.00000 0.00000
										}
									}
								}
								JOINT RThumb
								{
									OFFSET 0 0 0
									CHANNELS 3 Zrotation Yrotation Xrotation
									End Site
									{
										OFFSET -0.61171 -0.00000 0.61171
									}
								}
							}
						}
					}
				}
			}
		}
	}
}
MOTION
Frames: 7
Frame Time: .0083333
-3.150100 17.372700 1.231200 4.454600 32.424700 3.624300 0.000000 0.000000 0.000000 -31.565500 -2.645700 -10.585200 2.300700 9.466200 27.264900 0.598000 -7.915100 -14.026500 0.583200 4.890000 13.595000 0.000000 0.000000 0.000000 12.599400 8.124000 -29.999600 -9.898300 -17.352300 59.147900 -0.215300 -2.336400 -9.947200 -0.008600 -0.599700 1.647900 -3.744800 -0.504700 6.190000 1.327400 -0.889500 0.230800 3.557600 -0.377300 -3.156300 -8.808200 -2.751000 -14.591000 2.662300 -2.176200 24.149600 2.149300 -1.454000 10.271000 -0.000000 0.000000 0.000000 -89.834700 -0.271600 20.373000 14.530000 -23.487300 -3.036200 -0.000000 -0.000000 9.641000 17.717500 23.827400 7.354100 -7.125000 0.000000 -0.000000 -12.238900 54.434900 -2.869800 -0.000000 0.000000 0.000000 87.998400 -4.777200 6.887200 -17.256500 27.194600 -4.203900 0.000000 0.000000 6.454500 -15.369000 13.942800 -3.789100 7.125000 -0.000000 -0.000000 8.240400 -15.640700 5.774500
-3.080000 17.350300 1.350700 4.486300 32.673600 3.871200 0.000000 0.000000 0.000000 -31.623100 -2.674300 -10.197300 2.285400 9.436700 27.171300 0.643000 -7.941800 -14.505600 0.526800 4.651100 12.916100 0.000000 0.000000 0.000000 12.508500 8.535600 -30.627200 -9.345400 -17.024900 57.277200 -0.205300 -2.688400 -9.985200 -0.021000 0.935700 -2.571900 -3.864600 -0.567600 6.034600 1.433600 -0.972800 0.214700 3.740100 -0.418100 -3.074700 -9.057200 -2.739000 -14.673400 2.918600 -2.154500 24.092700 2.284400 -1.435600 10.270600 0.000000 -0.000000 0.000000 -89.673700 -0.410300 21.631800 15.003400 -24.150800 -3.227300 -0.000000 -0.000000 8.562100 18.012500 24.998400 7.824100 -7.125000 0.000000 -0.000000 -12.489500 55.661000 -3.304700 0.000000 -0.000000 0.000000 87.830800 -4.577300 6.827300 -17.022100 26.886900 -4.097300 0.000000 0.000000 6.639400 -14.872800 13.594600 -3.571900 7.125000 -0.000000 -0.000000 8.579000 -16.035200 5.943300
-3.005800 17.338100 1.476000 4.491200 32.791400 4.079700 0.000000 0.000000 0.000000 -31.688900 -2.513700 -9.728300 2.234200 9.337700 26.857600 0.691200 -7.656100 -14.961700 0.342800 3.762100 10.408300 0.000000 0.000000 0.000000 12.449300 9.101400 -31.087900 -8.752200 -16.645600 55.229300 -0.223800 -2.883000 -10.477600 -0.140300 2.414300 -6.652000 -4.048300 -0.623100 5.881400 1.591400 -1.048400 0.224800 4.011400 -0.455000 -2.965100 -9.109100 -2.688500 -14.812100 2.894300 -2.050900 23.998200 2.296400 -1.393500 10.256700 0.000000 -0.000000 0.000000 -89.611900 -0.728500 22.586400 15.367900 -24.656100 -3.377900 -0.000000 -0.000000 7.804000 18.539000 25.774500 8.296500 -7.125000 0.000000 -0.000000 -12.331100 56.542200 -3.526700 0.000000 -0.000000 0.000000 87.633700 -4.278900 6.817800 -16.779300 26.565900 -3.988100 0.000000 0.000000 6.716000 -14.965200 13.436100 -3.554000 7.125000 -0.000000 -0.000000 8.515800 -16.189500 5.869700
-2.931600 17.345300 1.604500 4.572500 33.030900 4.090900 0.000000 0.000000 0.000000 -31.764400 -2.092600 -9.003600 2.169100 9.209700 26.453500 0.707800 -7.736200 -15.140400 0.263600 3.302900 9.123100 0.000000 0.000000 0.000000 12.295900 9.618400 -31.141800 -8.104800 -16.195800 52.939400 -0.266600 -2.751600 -11.164700 -0.224200 3.047700 -8.411500 -4.229900 -0.714500 6.042300 1.667200 -1.186200 0.225800 4.207900 -0.518800 -3.035700 -9.022400 -2.680900 -14.954000 2.759000 -2.013500 24.039800 2.238100 -1.384400 10.294500 -0.000000 -0.000000 0.000000 -89.546200 -1.095800 22.413300 15.485800 -24.818500 -3.427300 -0.000000 -0.000000 8.577800 17.452100 23.093800 7.029800 -7.125000 0.000000 -0.000000 -12.180500 53.651800 -2.621500 -0.000000 -0.000000 0.000000 87.628200 -4.277300 6.796800 -16.716700 26.482800 -3.960200 0.000000 0.000000 6.738500 -14.922300 13.113300 -3.460000 7.125000 -0.000000 -0.000000 8.545800 -16.521500 5.828600
-2.858000 17.347900 1.737100 5.031100 33.315600 4.294500 0.000000 0.000000 0.000000 -32.155100 -1.827500 -8.106500 2.083700 9.038300 25.915300 0.698600 -8.005400 -15.084300 0.304000 3.545200 9.800600 0.000000 0.000000 0.000000 11.859300 9.881200 -31.102800 -7.419300 -15.675100 50.443000 -0.271800 -2.975800 -11.404200 -0.451200 4.309600 -11.949300 -4.679400 -0.779300 6.137900 1.573600 -1.311400 0.213800 4.377600 -0.573900 -3.081300 -8.982600 -2.718600 -14.826100 2.815000 -2.106100 23.886900 2.238000 -1.414900 10.220000 0.000000 -0.000000 0.000000 -89.334500 -1.368000 22.471700 15.629600 -25.015800 -3.487800 -0.000000 -0.000000 8.985900 16.661800 21.317600 6.209500 -7.125000 0.000000 -0.000000 -12.227800 51.735000 -2.053600 0.000000 -0.000000 0.000000 87.735900 -4.299500 6.691400 -16.577900 26.297900 -3.898500 0.000000 0.000000 6.853000 -14.982100 12.770300 -3.385400 7.125000 -0.000000 -0.000000 8.505900 -16.866700 5.736100
-2.779100 17.353600 1.867200 4.983600 33.497000 4.375600 0.000000 0.000000 0.000000 -32.078700 -1.906000 -7.218500 2.006400 8.879400 25.418700 0.692800 -8.219400 -15.057900 0.400700 4.064100 11.257000 0.000000 0.000000 0.000000 11.918200 10.072100 -31.145200 -6.691500 -15.066500 47.697600 -0.218800 -3.505200 -10.842800 -0.020300 -0.920400 2.529900 -4.674300 -0.889500 6.057500 1.606400 -1.453800 0.177200 4.419100 -0.644700 -3.057900 -9.050200 -2.735200 -14.861200 2.932700 -2.141300 23.768200 2.285000 -1.421900 10.187800 0.000000 -0.000000 0.000000 -89.217700 -1.599400 23.005300 15.923300 -25.416600 -3.613000 -0.000000 -0.000000 8.372400 17.256200 23.023600 6.926900 -7.125000 0.000000 -0.000000 -12.346400 53.545500 -2.625800 0.000000 -0.000000 0.000000 87.839400 -4.269100 6.535200 -16.420900 26.088000 -3.829200 0.000000 0.000000 7.135400 -15.017000 12.697000 -3.374500 7.125000 -0.000000 -0.000000 8.482100 -16.939000 5.706200
-2.698000 17.380700 1.991800 4.938600 33.743000 4.502500 0.000000 0.000000 0.000000 -31.935600 -2.118900 -6.261000 1.943400 8.747100 25.007300 0.692700 -8.742800 -15.143900 0.621300 5.044100 14.034300 0.000000 0.000000 0.000000 11.816400 10.382400 -31.225000 -5.968700 -14.397900 44.855900 -0.177200 -3.862500 -10.331900 -0.087500 -1.908200 5.252000 -4.743600 -1.031800 5.946200 1.770800 -1.637800 0.189500 4.641300 -0.737700 -2.955700 -9.309500 -2.800500 -15.237900 3.033700 -2.154500 23.823300 2.361100 -1.439500 10.286600 -0.000000 0.000000 0.000000 -89.313400 -1.897900 23.518400 16.281100 -25.900300 -3.767900 -0.000000 -0.000000 7.529300 17.892700 24.691000 7.680700 -7.125000 0.000000 -0.000000 -12.463800 55.330700 -3.197200 -0.000000 0.000000 0.000000 87.698200 -4.108800 6.491800 -16.275400 25.892700 -3.765400 0.000000 0.000000 7.012700 -15.019300 12.727800 -3.383100 7.125000 -0.000000 -0.000000 8.480400 -16.907300 5.710900
